<svg width="20" height="23" viewBox="0 0 20 23" fill="none" xmlns="http://www.w3.org/2000/svg">
<path d="M18.4023 10.9205C16.5508 6.43506 13.7519 4.17773 9.99999 4.17773C6.24609 4.17773 3.44921 6.43506 1.59765 10.9228C1.52338 11.1036 1.48486 11.3011 1.48486 11.5011C1.48486 11.7011 1.52338 11.8986 1.59765 12.0795C3.44921 16.5649 6.24804 18.8223 9.99999 18.8223C13.7539 18.8223 16.5508 16.5649 18.4023 12.0772C18.5527 11.7134 18.5527 11.2911 18.4023 10.9205ZM9.99999 17.2051C6.8496 17.2051 4.54296 15.3678 2.91601 11.5C4.54296 7.63223 6.8496 5.79492 9.99999 5.79492C13.1504 5.79492 15.457 7.63223 17.084 11.5C15.459 15.3678 13.1523 17.2051 9.99999 17.2051ZM9.92187 7.54688C8.02343 7.54688 6.48437 9.3168 6.48437 11.5C6.48437 13.6832 8.02343 15.4531 9.92187 15.4531C11.8203 15.4531 13.3594 13.6832 13.3594 11.5C13.3594 9.3168 11.8203 7.54688 9.92187 7.54688ZM9.92187 14.0156C8.71288 14.0156 7.73437 12.8903 7.73437 11.5C7.73437 10.1097 8.71288 8.98438 9.92187 8.98438C11.1309 8.98438 12.1094 10.1097 12.1094 11.5C12.1094 12.8903 11.1309 14.0156 9.92187 14.0156Z" fill="black"/>
</svg>
